<svg id="Capa_1" data-name="Capa 1" xmlns="http://www.w3.org/2000/svg" viewBox="0 0 32.14 32.14"><defs><style>.cls-1{fill:#fce9e9;}.cls-2{fill:#e5484d;}</style></defs><circle class="cls-1" cx="16.07" cy="16.07" r="16.07"/><path class="cls-2" d="M19.67,16.41A3.58,3.58,0,0,1,21,19.35,3.94,3.94,0,0,1,18.68,23a6.54,6.54,0,0,1-2.88.57,9.26,9.26,0,0,1-2.73-.41,6.66,6.66,0,0,1-2.21-1.12l1-1.89a5.81,5.81,0,0,0,1.76.95,6.57,6.57,0,0,0,2.11.34,3.46,3.46,0,0,0,2-.53,1.86,1.86,0,0,0-.06-3A5.32,5.32,0,0,0,15,17.39H11.83l.68-7.16h7.72v2H14.58l-.28,3.05h1.26A6.47,6.47,0,0,1,19.67,16.41Z"/></svg>