<svg id="Capa_1" data-name="Capa 1" xmlns="http://www.w3.org/2000/svg" viewBox="0 0 32.2 32.2"><defs><style>.cls-1{fill:#fff7f1;}.cls-2{fill:#fe9344;}</style></defs><circle class="cls-1" cx="16.1" cy="16.1" r="16.1"/><path class="cls-2" d="M19.88,16.94a3.54,3.54,0,0,1,1,2.54,3.91,3.91,0,0,1-.59,2.09,4,4,0,0,1-1.76,1.49,6.67,6.67,0,0,1-2.87.56,9.14,9.14,0,0,1-2.72-.41,6.87,6.87,0,0,1-2.23-1.12l1.05-1.9a5.39,5.39,0,0,0,1.74.95,6.41,6.41,0,0,0,2.12.35,3.51,3.51,0,0,0,2-.53,1.73,1.73,0,0,0,.74-1.46,1.68,1.68,0,0,0-.71-1.44,3.61,3.61,0,0,0-2.15-.52H14.3V15.86l3-3.56h-6V10.25h9v1.64l-3.2,3.8A4.43,4.43,0,0,1,19.88,16.94Z"/></svg>