<?xml version="1.0" encoding="UTF-8"?><svg id="Capa_1" xmlns="http://www.w3.org/2000/svg" viewBox="0 0 38.1 37.75"><defs><style>.cls-1{fill:#eeedfe;}.cls-2{fill:none;stroke:#7367f0;stroke-linecap:round;stroke-miterlimit:10;stroke-width:1.3px;}</style></defs><rect class="cls-1" x="0" y="0" width="38.1" height="37.75" rx="18.88" ry="18.88"/><path class="cls-2" d="M19.85,9.63l2.13,4.31c.13,.27,.39,.45,.68,.49l4.76,.69c.74,.11,1.04,1.02,.5,1.54l-3.44,3.36c-.21,.21-.31,.51-.26,.8l.81,4.74c.13,.74-.65,1.3-1.31,.95l-4.26-2.24c-.26-.14-.58-.14-.84,0l-4.26,2.24c-.66,.35-1.44-.21-1.31-.95l.81-4.74c.05-.29-.05-.59-.26-.8l-3.44-3.36c-.54-.52-.24-1.43,.5-1.54l4.76-.69c.29-.04,.55-.23,.68-.49l2.13-4.31c.33-.67,1.29-.67,1.62,0Z"/></svg>