<svg xmlns="http://www.w3.org/2000/svg" viewBox="0 0 54.07 61.84"><defs><style>.cls-1{fill:#63bae5;}.cls-2,.cls-3{fill:none;stroke-linecap:round;stroke-miterlimit:10;stroke-width:3px;}.cls-2{stroke:#fff;}.cls-3{stroke:#056691;}</style></defs><title>iconos</title><g id="Capa_1" data-name="Capa 1"><rect class="cls-1" x="-0.05" y="0.12" width="54.16" height="61.84" rx="4.1"/><path class="cls-2" d="M23.84,26.47l12-12.09"/><path class="cls-3" d="M30.06,35.25,17.59,47.52a5.52,5.52,0,0,1-7.78-.08h0a5.52,5.52,0,0,1,.07-7.78L20.73,29a5.51,5.51,0,0,1,7.78.08h0a6.23,6.23,0,0,1,1,1.11"/><path class="cls-2" d="M35.83,14.38a5.52,5.52,0,0,1,7.78,0h0a5.52,5.52,0,0,1,0,7.78L33,32.92a5.52,5.52,0,0,1-7.78,0h0a3,3,0,0,1-.73-.86"/></g></svg>