<svg xmlns="http://www.w3.org/2000/svg" viewBox="0 0 54.07 61.84"><defs><style>.cls-1,.cls-4{fill:#f74a2e;}.cls-2{fill:#e73410;}.cls-3{fill:#fff;stroke:#e73410;stroke-miterlimit:10;}.cls-4{font-size:14px;font-family:Dosis-Bold, Dosis;font-weight:700;}</style></defs><title>iconos</title><g id="Capa_1" data-name="Capa 1"><path class="cls-1" d="M51.18,61.84H7.35A2.89,2.89,0,0,1,4.46,59V2.88A2.89,2.89,0,0,1,7.35,0h33L54.07,13.15V59A2.88,2.88,0,0,1,51.18,61.84Z"/><path class="cls-2" d="M40.35,0l.06,12.84a.38.38,0,0,0,.38.38l13.28-.07"/><path class="cls-3" d="M1.64,27.92H32.87a2,2,0,0,1,2,2v11a2,2,0,0,1-2,2H2.46a2,2,0,0,1-2-2V29.06a1.14,1.14,0,0,1,1.14-1.14Z"/><text class="cls-4" transform="translate(6.15 40.6)">PDF</text></g></svg>