<?xml version="1.0" encoding="utf-8"?>
<!-- Generator: Adobe Illustrator 25.3.1, SVG Export Plug-In . SVG Version: 6.00 Build 0)  -->
<svg version="1.1" id="Capa_1" xmlns="http://www.w3.org/2000/svg" xmlns:xlink="http://www.w3.org/1999/xlink" x="0px" y="0px"
	 viewBox="0 0 54.1 61.8" style="enable-background:new 0 0 54.1 61.8;" xml:space="preserve">
<style type="text/css">
	.st0{fill:#E5C31A;}
	.st1{fill:#BC9D19;}
	.st2{fill:#FFFFFF;stroke:#B78E1C;stroke-miterlimit:10;}
	.st3{fill:#CEA600;}
	.st4{font-family:'Dosis-Bold';}
	.st5{font-size:13px;}
</style>
<g id="Capa_1_1_">
	<path class="st0" d="M51.2,61.8H7.3c-1.6,0-2.9-1.3-2.9-2.8V2.9C4.5,1.3,5.8,0,7.3,0h33l13.7,13.1V59C54,60.6,52.8,61.8,51.2,61.8z
		"/>
	<path class="st1" d="M40.3,0l0.1,12.8c0,0.2,0.2,0.4,0.4,0.4l0,0l13.3-0.1"/>
	<path class="st2" d="M1.6,27.9h36.8c1.1,0,2,0.9,2,2v11c0,1.1-0.9,2-2,2H2.5c-1.1,0-2-0.9-2-2V29.1C0.5,28.4,1,27.9,1.6,27.9
		L1.6,27.9z"/>
	<text transform="matrix(1 0 0 1 9.71 40.09)" class="st3 st4 st5">PPT</text>
</g>
</svg>
