<?xml version="1.0" encoding="UTF-8"?><svg id="a" xmlns="http://www.w3.org/2000/svg" xmlns:xlink="http://www.w3.org/1999/xlink" viewBox="0 0 201.99 199.38"><defs><style>.c{fill:none;}.d{fill:#f73426;}.e{fill:#ed1611;}.f{fill:#e9e9f4;}.g{fill:#fd553f;}.h{fill:#fff;}.i{fill:#fc6256;}.j{fill:#cdc0dd;}.k{clip-path:url(#b);}</style><clipPath id="b"><rect class="c" x="38.89" y="32.59" width="120.3" height="131.24" rx="9" ry="9" transform="translate(.84 197.25) rotate(-90)"/></clipPath></defs><rect class="f" width="201.99" height="199.38" rx="20" ry="20"/><rect class="j" x="41.86" y="47.28" width="131.17" height="120.01" rx="10" ry="10"/><g class="k"><rect class="e" x="27.63" y="130.84" width="143.15" height="34.39"/><rect class="d" x="27.63" y="97.31" width="143.15" height="34.39"/><rect class="g" x="27.63" y="63.79" width="143.15" height="34.39" transform="translate(.14 -.17) rotate(.1)"/><rect class="i" x="27.63" y="30.26" width="143.15" height="34.39"/></g><g><path class="h" d="M49.4,76.99c0-1.59,1.47-2.99,3.69-2.99h13.17c8.4,0,15.01,3.95,15.01,14.63v.32c0,10.69-6.87,14.76-15.65,14.76h-6.3v13.74c0,2.03-2.48,3.05-4.96,3.05s-4.96-1.02-4.96-3.05v-40.46Zm9.92,5.66v13.42h6.3c3.56,0,5.72-2.04,5.72-6.36v-.7c0-4.33-2.16-6.36-5.72-6.36h-6.3Z"/><path class="h" d="M101.2,74c8.78,0,15.65,4.07,15.65,15.02v16.48c0,10.94-6.87,15.01-15.65,15.01h-11.26c-2.61,0-4.33-1.4-4.33-2.99v-40.52c0-1.59,1.72-2.99,4.33-2.99h11.26Zm-5.66,8.66v29.2h5.66c3.56,0,5.72-2.04,5.72-6.36v-16.48c0-4.33-2.16-6.36-5.72-6.36h-5.66Z"/><path class="h" d="M123.17,77.06c0-2.04,2.17-3.06,4.33-3.06h22.08c2.1,0,2.99,2.23,2.99,4.26,0,2.36-1.08,4.39-2.99,4.39h-16.48v10.75h9.61c1.91,0,2.99,1.84,2.99,3.88,0,1.72-.89,3.76-2.99,3.76h-9.61v16.42c0,2.03-2.48,3.05-4.96,3.05s-4.96-1.02-4.96-3.05v-40.4Z"/></g></svg>