<?xml version="1.0" encoding="UTF-8"?><svg id="a" xmlns="http://www.w3.org/2000/svg" viewBox="0 0 1162.67 938.38"><defs><style>.b{fill:none;}.c{fill:#f04f4f;}.d{fill:#fff;}.e{fill:#ffd259;}.f{fill:#ff95a9;}.g{fill:#8b77e8;}.h{fill:#b3a4f5;}.i{fill:#ddd6ff;}.j{fill:#40327a;}.k{fill:#7760db;}</style></defs><g><path class="b" d="M244.64,758.33c-.18,.3-.36,.59-.53,.88,.17-.3,.35-.59,.53-.88Z"/><path class="b" d="M503.88,566.94c.26-.15,.5-.31,.76-.46-.26,.15-.5,.32-.76,.46Z"/><path class="b" d="M209.03,860.23c-.23,1.63-.45,3.27-.64,4.91,.19-1.64,.42-3.27,.64-4.91Z"/><path class="b" d="M207.7,871.63c-.23,2.42-.41,4.85-.57,7.28,.16-2.43,.35-4.86,.57-7.28Z"/><path class="j" d="M244.75,725.14h0l-143.54-111.92c5.96,91.72,70.15,131.65,140.29,134.45,3.52-5.58,7.26-11.03,11.18-16.35l-7.93-6.18Z"/><path class="j" d="M293.26,698.24h0l-54.82-217.88-100.71,70.69,137.77,139.43h0l12.61,12.76c1.72-1.67,3.39-3.38,5.15-5.01Z"/><path class="j" d="M223.7,354.55c1.24-1.12,2.52-2.21,3.88-3.23,9.39-7.04,20.34-10.5,31.25-10.71,.35-.01,.72-.06,1.07-.06h70.7v-124.92l-3.31,.66c-11.22,2.23-22.13-5.06-24.36-16.28h0c-2.23-11.22,5.06-22.13,16.28-24.36l4.06-.81h0c27-5.37,51.52-19.4,69.83-39.97,19.67-22.1,44.95-38.28,73-46.99l27.7,104.99c9.88,37.44-13.86,75.45-51.84,83l-20.21,4.02v60.66h24.35c.38,0,.75,.05,1.13,.06,1.11,.02,2.22,.07,3.33,.17,.38,.03,.77,.03,1.15,.07,.35,.03,.68,.11,1.02,.16h0c.99,.12,1.97,.27,2.96,.45,.49,.09,.98,.15,1.46,.24,.38,.08,.74,.2,1.11,.28,.8,.19,1.6,.39,2.41,.62,.58,.16,1.17,.3,1.74,.48,.41,.13,.81,.3,1.22,.45,.66,.22,1.3,.46,1.95,.72,.62,.24,1.25,.46,1.87,.73,.43,.19,.85,.41,1.28,.61,.33,.15,.66,.27,.99,.42,.27,.13,.52,.3,.79,.44,.58,.3,1.17,.58,1.74,.89,.4,.22,.77,.47,1.16,.7,.64,.38,1.28,.76,1.91,1.16,.17,.11,.34,.2,.5,.31v-.02l66.31,43.75c.09-.92,.19-1.82,.27-2.77,4.9-59.71-39.95-62.81-34.52-122.47,1.23-13.57,14.87-35.18,19.1-43.43l.05-.04c.71-1.43,1.42-2.82,2.09-4.26,6.98-14.63,11.71-30.6,13.78-47.52C553.25,88.34,493.19,11.5,408.74,1.16c-84.4-10.34-161.24,49.73-171.58,134.13-2.07,16.92-1.34,33.57,1.91,49.44,.3,1.56,.64,3.17,1.03,4.73,2.12,8.98,10.33,31.96,8.06,46.71-9.12,59.21-53.45,51.38-63.11,110.51-3.05,18.69-2.52,32.02-.59,43.4l39.23-35.54v.02Z"/><path class="j" d="M485.95,698.24h0c4.25,8.57,7.94,17.38,11.12,26.36,19.01-15.33,30.75-37.97,30.75-68.69,0-25.84-13.94-44.72-21.02-71.31-.67-2.51-1.5-5.48-2.37-8.64-4.16,2.01-8.53,3.54-13.03,4.58l-5.45,117.7Z"/><path class="j" d="M499.55,569.12c.38-.17,.76-.36,1.14-.55-.38,.18-.75,.37-1.14,.55Z"/><path class="j" d="M494.98,570.93c.48-.17,.96-.34,1.43-.52-.48,.18-.95,.36-1.43,.52Z"/><path class="j" d="M491.8,571.91h0s.09-.02,.13-.03c-.04,.01-.09,.02-.13,.03Z"/><polygon class="c" points="293.27 698.24 293.26 698.24 293.26 698.24 293.27 698.24"/><path class="f" d="M471.07,346.74c.39,.2,.8,.38,1.19,.59-.57-.32-1.16-.6-1.74-.89,.19,.09,.36,.2,.55,.3Z"/><path class="f" d="M475.82,349.53l.02-.03c-.16-.11-.34-.2-.5-.31,.17,.11,.32,.23,.49,.34Z"/><path class="f" d="M456.01,341.51c.39,.07,.79,.11,1.17,.18-.48-.1-.98-.16-1.46-.24,.1,.02,.2,.04,.3,.06Z"/><path class="f" d="M466.05,344.43c.47,.19,.96,.34,1.42,.54-.61-.27-1.24-.49-1.87-.73,.15,.06,.3,.13,.45,.19Z"/><path class="f" d="M450.74,340.79c.33,.03,.66,.02,.99,.05-.38-.04-.77-.04-1.15-.07,.05,0,.11,.01,.16,.02Z"/><path class="f" d="M461.07,342.72c.45,.13,.91,.22,1.36,.36-.57-.18-1.16-.32-1.74-.48,.13,.04,.25,.08,.38,.12Z"/><path class="f" d="M446.1,340.55c.36,0,.71,.05,1.07,.06h.07c-.38,0-.75-.06-1.13-.06h-.02Z"/><rect class="f" x="644.46" y="465.79" width="0" height="78.12" transform="translate(-42.67 949.88) rotate(-71)"/><path class="d" d="M207.7,871.63c.2-2.17,.43-4.34,.68-6.5,.19-1.64,.41-3.27,.64-4.91,4.86-35.81,16.83-70.13,35.08-101.01,.17-.3,.35-.59,.53-.88,4.49-7.53,9.34-14.84,14.56-21.93l-6.53-5.09c-3.92,5.33-7.66,10.78-11.18,16.35-28.03,44.39-43.29,96.32-43.29,148.82h8.29c0-4.22,.13-8.42,.33-12.63,.08-1.65,.2-3.3,.31-4.94,.16-2.43,.34-4.86,.57-7.28Z"/><path class="k" d="M400.74,698.24h-107.48c-1.76,1.63-3.44,3.34-5.15,5.01l8.83,8.94,41.59,1.98c16,.76,28.36,14.35,27.6,30.35-.76,16-14.35,28.36-30.35,27.6-3.29-.16-6.42-.88-9.32-2.04v.03l-46.22-18.34,.02-.09c-1.83-.73-3.54-1.66-5.07-2.84l-.02,.03-15.97-12.45c-5.22,7.08-10.07,14.4-14.56,21.93-.18,.3-.36,.59-.53,.88-18.25,30.88-30.23,65.2-35.08,101.01-.22,1.63-.45,3.27-.64,4.91-.25,2.16-.48,4.33-.68,6.5-.22,2.42-.41,4.85-.57,7.28-.11,1.65-.23,3.29-.31,4.94-.2,4.2-.33,8.41-.33,12.64v22.57h246.29c32.04,0,58.01-25.97,58.01-58.01v-56.75c0-27.23-4.69-54.17-13.73-79.7-3.18-8.98-6.87-17.78-11.12-26.36h-85.21Z"/><path class="f" d="M259.2,736.41l15.97,12.45,.02-.03c1.53,1.19,3.24,2.11,5.07,2.84l-.02,.09,46.22,18.34v-.03c2.91,1.15,6.03,1.88,9.33,2.04,16,.76,29.59-11.59,30.35-27.6,.76-16-11.6-29.59-27.6-30.35l-41.59-1.98-8.83-8.94-12.61-12.76-30.76,34.64,7.93,6.18,6.53,5.09Z"/><path class="e" d="M662.62,258.39l-43.81,185.43-76.67-50.59-66.3-43.75v.02l-.03,.03c-.17-.11-.32-.23-.49-.34-.62-.4-1.26-.78-1.91-1.16-.39-.23-.76-.48-1.16-.7-.39-.21-.8-.39-1.19-.59-.19-.1-.36-.21-.55-.3-.27-.14-.51-.3-.79-.44-.33-.16-.66-.27-.99-.42-.43-.2-.84-.42-1.28-.61-.46-.2-.95-.35-1.42-.54-.15-.06-.3-.13-.45-.19-.65-.25-1.3-.49-1.95-.72-.41-.14-.8-.31-1.22-.45-.45-.14-.91-.23-1.36-.36-.13-.04-.25-.08-.38-.12-.8-.23-1.6-.43-2.41-.62-.37-.09-.73-.2-1.11-.28-.38-.08-.78-.11-1.17-.18-.1-.02-.2-.04-.3-.06-.99-.18-1.97-.33-2.96-.45h0c-.34-.04-.68-.12-1.02-.16-.32-.03-.66-.02-.99-.05-.05,0-.11-.01-.16-.02-1.11-.09-2.22-.15-3.33-.17h-.07c-.36,0-.71-.06-1.07-.06h-10.75v95.86l-146.15-95.86h-29.3c-.35,0-.72,.05-1.07,.06-10.91,.21-21.86,3.67-31.25,10.71-1.36,1.02-2.65,2.11-3.88,3.23v-.02l-39.24,35.54-136.34,123.53,.03,.04c-.42,.38-.87,.74-1.28,1.15-15.38,15.19-15.52,39.98-.33,55.35,1.21,1.23,2.51,2.32,3.83,3.36l-.04,.04,50.88,39.67,143.54,111.92h0l30.76-34.65h0l-137.77-139.44-.58,.41-4.76-6.78,116.66-81.89,4.76,6.78-15.37,10.79,54.82,217.88h192.69l5.45-117.7c-3.85,.89-7.79,1.42-11.77,1.56v.1h-33.51v-8.29h31.31c.13,0,.24-.02,.37-.02,1.56-.01,3.1-.09,4.65-.23,.8-.07,1.57-.2,2.36-.31,.83-.12,1.66-.22,2.48-.38,.96-.18,1.9-.4,2.84-.63,.56-.14,1.12-.27,1.68-.42h0s.09-.03,.13-.04c1.03-.29,2.05-.6,3.05-.95,.48-.17,.96-.34,1.43-.52,1.06-.4,2.11-.82,3.14-1.28,.38-.17,.76-.36,1.14-.55,1.08-.52,2.15-1.05,3.19-1.64,.26-.15,.5-.31,.76-.46,2.47-1.45,4.84-3.05,7.04-4.86,11.98-9.88,19.61-24.83,19.61-41.57,0-10.27-2.93-19.83-7.91-27.99l103.5,50.5,.02-.03c4.02,1.96,8.42,3.3,13.12,3.79,21.5,2.22,40.73-13.41,42.96-34.92l-77.02-13.07h0l77.02,13.07h0l25.32-245.24h0l-45.67-7.76h0Z"/><path class="f" d="M421.77,279.89l20.21-4.02c37.98-7.55,61.72-45.56,51.84-83l-27.7-104.99c-28.05,8.72-53.33,24.9-73,46.99-18.31,20.57-42.82,34.6-69.83,39.97h0l-4.06,.81c-11.22,2.23-18.51,13.14-16.28,24.36h0c2.23,11.22,13.14,18.51,24.36,16.28l3.31-.66v124.92h-41.41l146.15,95.86v-95.86h-13.58v-60.66Zm19.22-47.16c-12.35,2.45-24.34-5.57-26.79-17.92l44.71-8.87c2.45,12.35-5.57,24.34-17.92,26.79Z"/><path class="d" d="M414.19,214.81c2.45,12.35,14.44,20.37,26.79,17.92,12.35-2.45,20.37-14.44,17.92-26.79l-44.71,8.87Z"/><path class="f" d="M731.83,200.66c15.46-23.24-1.21-54.33-29.12-54.33h-9.16v-49.8c0-5.72-4.64-10.36-10.36-10.36s-10.36,4.64-10.36,10.36v118.69l-8.54,36.16h0l-1.66,7.02,45.67,7.76,3.68-35.65,19.85-29.84Z"/><path class="d" d="M503.88,566.94c-1.04,.59-2.11,1.12-3.19,1.64-.38,.18-.75,.37-1.14,.55-1.03,.47-2.08,.88-3.14,1.28-.48,.18-.95,.36-1.43,.52-1,.35-2.02,.66-3.05,.95-.04,.01-.09,.03-.13,.04-.56,.15-1.12,.29-1.68,.42-.94,.23-1.88,.45-2.84,.63-.82,.15-1.65,.26-2.48,.38-.79,.11-1.56,.24-2.36,.31-1.54,.15-3.09,.22-4.65,.23-.13,0-.24,.02-.37,.02h-31.31v8.29h33.51v-.1c3.98-.14,7.92-.67,11.77-1.56,4.5-1.04,8.87-2.57,13.03-4.58,4.45-2.15,8.66-4.79,12.51-7.97l-5.26-6.37c-2.2,1.81-4.57,3.41-7.04,4.86-.26,.15-.5,.32-.76,.46Z"/><polygon class="d" points="253.81 469.57 249.05 462.79 132.39 544.68 137.15 551.46 137.74 551.06 238.44 480.36 253.81 469.57"/></g><g><rect class="j" x="377.6" y="872.62" width="329.4" height="21.59"/><g><polygon class="h" points="1157.58 568.58 1105.62 820.73 1105.24 822.58 1090.5 894.23 634.11 894.23 701.19 568.58 1157.58 568.58"/><polygon class="i" points="1049.6 894.23 634.11 894.23 1105.62 820.73 1105.24 822.58 1090.5 894.23 1074.3 894.23 1049.6 894.23"/><ellipse class="d" cx="895.84" cy="731.38" rx="36.88" ry="30.03" transform="translate(-259.23 788.49) rotate(-42.06)"/></g></g><polygon class="h" points="797 894.23 0 894.23 0 935.66 1142.63 935.66 1142.63 894.23 917.28 894.23 797 894.23"/><rect class="j" x="227.23" y="933.2" width="442.01" height="4.92"/><rect class="j" x="52.22" y="933.2" width="114.59" height="4.92"/><rect class="j" x="186.97" y="933.2" width="18.39" height="4.92"/><rect class="j" x="852.23" y="932.95" width="222.07" height="5.43"/><polygon class="g" points="1117.33 784.42 1109.22 782.75 1152.5 572.72 701.19 572.72 701.19 564.43 1162.67 564.43 1117.33 784.42"/><rect class="g" x="1085.71" y="825.67" width="36.09" height="8.29" transform="translate(68.87 1744.06) rotate(-78.39)"/></svg>